# xmcd
#
# Track frame offsets: 
#        150
#        10810
#        23193
#        35750
#        47783
#        60793
#        74095
#        85733
#        97293
#        109255
#        120028
#        130518
#        143063
#        154295
#        166588
#        179880
#
# Disc length: 2561 seconds
#
# Revision: 3
# Processed by: cddbd v1.5.2PL0 Copyright (c) Steve Scherf et al.
# Submitted via: ExactAudioCopy v0.99pb5
#
DISCID=d409ff10
DTITLE=Sonny Boy Williamson - Boppin' With Sonny
DYEAR=1900
DGENRE=Blues
TTITLE0=Shuckin' Mama
TTITLE1=I'm Not Beggin' Nobody
TTITLE2=Boppin' With Sonny
TTITLE3=Empty Bedroom
TTITLE4=From The Bottom
TTITLE5=No Nights By Myself
TTITLE6=Red Hot Kisses
TTITLE7=Keep It To Yourself
TTITLE8=Going In Your Direction
TTITLE9=Gettin' Out Of Town
TTITLE10=Sonny's Rhythm #1
TTITLE11=She's Crazy
TTITLE12=City Of New Orleans
TTITLE13=309
TTITLE14=Cat Hop
TTITLE15=Clownin' With The World
EXTD=
EXTT0=
EXTT1=
EXTT2=
EXTT3=
EXTT4=
EXTT5=
EXTT6=
EXTT7=
EXTT8=
EXTT9=
EXTT10=
EXTT11=
EXTT12=
EXTT13=
EXTT14=
EXTT15=
PLAYORDER=
